<svg xmlns="http://www.w3.org/2000/svg" viewBox="0 0 24 24">
  <path fill="#8b949e" d="M12 .5a12 12 0 0 0-3.8 23.38c.6.11.82-.26.82-.58v-2.04c-3.34.73-4.04-1.6-4.04-1.6-.55-1.39-1.34-1.76-1.34-1.76-1.09-.75.08-.73.08-.73 1.2.08 1.84 1.24 1.84 1.24 1.08 1.84 2.82 1.31 3.5 1 .11-.78.42-1.31.76-1.61-2.66-.3-5.46-1.33-5.46-5.93 0-1.31.47-2.38 1.24-3.22-.12-.3-.54-1.52.12-3.17 0 0 1-.32 3.3 1.23A11.5 11.5 0 0 1 12 5.7c1.02 0 2.05.14 3 .4 2.28-1.55 3.29-1.23 3.29-1.23.66 1.65.24 2.87.12 3.17.77.84 1.23 1.91 1.23 3.22 0 4.61-2.8 5.62-5.47 5.92.43.37.82 1.1.82 2.22v3.29c0 .32.22.7.83.58A12 12 0 0 0 12 .5Z"/>
</svg>
